<svg id="Layer_1" data-name="Layer 1" xmlns="http://www.w3.org/2000/svg" xmlns:xlink="http://www.w3.org/1999/xlink" viewBox="0 0 723.48 261.1"><defs><style>.cls-1{fill:#0e0d12;}.cls-2{fill:url(#linear-gradient);}.cls-3{fill:url(#linear-gradient-2);}</style><linearGradient id="linear-gradient" x1="299.39" y1="59.5" x2="338.99" y2="59.5" gradientUnits="userSpaceOnUse"><stop offset="0" stop-color="#307dfe"/><stop offset="1" stop-color="#1d58fb"/></linearGradient><linearGradient id="linear-gradient-2" x1="62.85" y1="177.2" x2="102.45" y2="177.2" xlink:href="#linear-gradient"/></defs><title>logo-light</title><path class="cls-1" d="M249.9,259.1a39.52,39.52,0,0,1-23.4-7.2,47.64,47.64,0,0,1-15.9-19.65q-5.72-12.45-5.7-28.65V39.8a15,15,0,1,1,30,0V203.6q0,11.1,4.2,18.3t10.8,7.2h7.5a12.49,12.49,0,0,1,9.75,4.2,15.65,15.65,0,0,1,3.75,10.8,12.89,12.89,0,0,1-5.7,10.8q-5.71,4.2-14.7,4.2Z"/><path class="cls-1" d="M319.19,259.1a14.87,14.87,0,0,1-15.3-15.3V110.3a14.72,14.72,0,0,1,4.35-11.1A15.13,15.13,0,0,1,319.19,95q6.9,0,11.1,4.2t4.2,11.1V243.8a15.13,15.13,0,0,1-4.2,10.95A14.72,14.72,0,0,1,319.19,259.1Z"/><path class="cls-1" d="M406.79,259.4a14.87,14.87,0,0,1-15.3-15.3V110.3a14.72,14.72,0,0,1,4.35-11.1,15.13,15.13,0,0,1,11-4.2q6.9,0,11.1,4.2t4.2,11.1V244.1a15.13,15.13,0,0,1-4.2,11A14.72,14.72,0,0,1,406.79,259.4Zm123.3,0a14.87,14.87,0,0,1-15.3-15.3V170.3q0-17.1-6.3-27.9a39.68,39.68,0,0,0-16.95-16.05,54.61,54.61,0,0,0-24.45-5.25,50.27,50.27,0,0,0-22.8,5.1,42.63,42.63,0,0,0-16.2,13.65,33.36,33.36,0,0,0-6,19.65h-18.9q0-18.9,9.15-33.75a66.05,66.05,0,0,1,25.05-23.55q15.9-8.7,35.7-8.7,20.7,0,37.05,8.85a63.84,63.84,0,0,1,25.8,26q9.45,17.1,9.45,42v73.8a14.87,14.87,0,0,1-15.3,15.3Z"/><path class="cls-1" d="M610.79,259.1a13.91,13.91,0,0,1-14.7-14.7V39.5a14.71,14.71,0,1,1,29.4,0V244.4a13.91,13.91,0,0,1-14.7,14.7Zm14.1-60-18.6-20.4,92.1-82.2a13.25,13.25,0,0,1,10.05-3.9,13.1,13.1,0,0,1,9.45,4.8,13.16,13.16,0,0,1,3.9,9.9,14,14,0,0,1-4.8,9.6Zm93,58.5a14.61,14.61,0,0,1-10.65,3.45,13.47,13.47,0,0,1-9.75-5.25l-60.9-75.3,21-19.8L720,237.5a14.21,14.21,0,0,1,3.45,10.35C723.14,251.55,721.28,254.8,717.89,257.6Z"/><path class="cls-1" d="M154.65,133.85a77.19,77.19,0,0,0-29.25-29.4Q106.8,93.8,82.8,93.8q-24.3,0-42.9,10.65a79.34,79.34,0,0,0-10.36,7.06L30,15A14.39,14.39,0,0,0,15,0,14.39,14.39,0,0,0,0,15V178.8a79.79,79.79,0,0,0,1,12.92,81,81,0,0,0,9.63,28.53,77.19,77.19,0,0,0,29.25,29.4Q58.5,260.3,82.8,260.3t42.9-10.65a76.12,76.12,0,0,0,29.1-29.4q10.5-18.75,10.5-43.05Q165.3,152.6,154.65,133.85Zm-25.5,72.45a50.35,50.35,0,0,1-18.75,19.8q-12,7.2-27.6,7.2t-27.6-7.2a51.43,51.43,0,0,1-18.9-19.8q-6.9-12.6-6.9-29.1T36.3,148A51.15,51.15,0,0,1,55.2,128q12-7.2,27.6-7.2t27.6,7.2A50.09,50.09,0,0,1,129.15,148q6.75,12.75,6.75,29.25T129.15,206.3Z"/><path class="cls-2" d="M319.19,79.3a20,20,0,0,1-19.8-19.8,19.8,19.8,0,1,1,33.75,14A19,19,0,0,1,319.19,79.3Z"/><path class="cls-3" d="M82.65,197A19.8,19.8,0,1,1,96.6,163.25,19.8,19.8,0,0,1,82.65,197Z"/></svg>